<svg width="24" height="24" viewBox="0 0 24 24" fill="currentColor" xmlns="http://www.w3.org/2000/svg">
<path d="M6.49002 6.49002L4.70211 4.70211C4.44303 4.44303 4 4.62653 4 4.99296V9.89516C4 10.1223 4.18416 10.3064 4.41129 10.3064H9.31349C9.67992 10.3064 9.86342 9.86346 9.60431 9.60434L7.74912 7.74912C8.96438 6.53365 10.6436 5.78226 12.5 5.78226C15.6974 5.78226 18.3693 8.01051 19.0499 11H20.867C20.1551 7.02987 16.6701 4 12.5 4C10.1527 4 8.02807 4.95169 6.49002 6.49002Z"/>
<path d="M18.4954 17.51L20.2833 19.2979C20.5424 19.557 20.9854 19.3735 20.9854 19.007V14.1048C20.9854 13.8777 20.8013 13.6935 20.5742 13.6935L15.672 13.6935C15.3055 13.6935 15.122 14.1365 15.3811 14.3957L17.2363 16.2509C16.0211 17.4663 14.3418 18.2177 12.4854 18.2177C9.28803 18.2177 6.61611 15.9895 5.93551 13L4.11841 13C4.83036 16.9701 8.31532 20 12.4855 20C14.8327 20 16.9574 19.0483 18.4954 17.51Z"/>
</svg>
